<svg width="166" height="62" viewBox="0 0 166 62" fill="none" xmlns="http://www.w3.org/2000/svg">
<mask id="path-1-outside-1_2_30" maskUnits="userSpaceOnUse" x="-2" y="-1" width="169" height="64" fill="black">
<rect fill="white" x="-2" y="-1" width="169" height="64"/>
<path d="M45.0905 14.152C45.0905 16.984 44.2985 19.6 42.7145 22C41.1305 24.4 38.5145 26.224 34.8665 27.472L43.2185 49H27.1625L20.8265 29.056H20.0345L15.7865 49H0.234528L9.95453 3.28H28.8905C31.0985 3.28 33.1865 3.424 35.1545 3.712C37.1225 3.952 38.8265 4.48 40.2665 5.296C41.7545 6.064 42.9305 7.168 43.7945 8.608C44.6585 10 45.0905 11.848 45.0905 14.152ZM24.3545 24.448C25.6025 24.448 26.6585 24.04 27.5225 23.224C28.4345 22.36 29.1545 21.328 29.6825 20.128C30.2585 18.928 30.6665 17.656 30.9065 16.312C31.1465 14.92 31.2665 13.72 31.2665 12.712C31.2665 11.464 31.0505 10.408 30.6185 9.544C30.1865 8.632 29.2505 8.176 27.8105 8.176H24.5705L20.9705 24.448H24.3545ZM64.8168 18.04L66.9768 39.208L78.3528 18.04H85.9848L68.6328 49C66.9048 52.024 65.1528 54.352 63.3768 55.984C61.6008 57.616 59.6568 58.816 57.5448 59.584C55.4808 60.352 53.1768 60.784 50.6328 60.88C48.1368 61.024 45.2808 61.096 42.0648 61.096L43.1448 56.128C44.7288 56.128 46.1928 56.104 47.5368 56.056C48.9288 56.008 50.0328 55.864 50.8488 55.624C51.9528 55.336 52.7448 54.808 53.2248 54.04C53.7048 53.32 53.9448 52.24 53.9448 50.8C53.9448 49.84 53.8488 48.736 53.6568 47.488C53.5128 46.24 53.3448 44.92 53.1528 43.528L49.6248 18.04H64.8168ZM114.348 0.615996H129.108L118.812 49H107.148L105.852 44.392H105.348C105.06 44.824 104.604 45.352 103.98 45.976C103.404 46.552 102.66 47.128 101.748 47.704C100.836 48.232 99.7558 48.664 98.5078 49C97.2598 49.384 95.8198 49.576 94.1878 49.576C92.5078 49.576 91.0678 49.336 89.8678 48.856C88.7158 48.328 87.7558 47.632 86.9878 46.768C86.2678 45.904 85.7398 44.872 85.4038 43.672C85.0678 42.424 84.8998 41.08 84.8998 39.64C84.8998 39.016 84.9478 38.032 85.0438 36.688C85.1398 35.296 85.3558 33.784 85.6918 32.152C86.0758 30.472 86.6038 28.768 87.2758 27.04C87.9958 25.264 88.9318 23.656 90.0838 22.216C91.2838 20.776 92.7478 19.6 94.4758 18.688C96.2038 17.728 98.2918 17.248 100.74 17.248C101.508 17.248 102.324 17.32 103.188 17.464C104.052 17.608 104.868 17.872 105.636 18.256C106.452 18.64 107.172 19.192 107.796 19.912C108.42 20.632 108.876 21.568 109.164 22.72H109.668L114.348 0.615996ZM105.564 24.304C104.412 24.304 103.452 24.952 102.684 26.248C101.916 27.496 101.292 28.96 100.812 30.64C100.332 32.32 99.9718 34 99.7318 35.68C99.5398 37.36 99.4438 38.608 99.4438 39.424C99.4438 40.384 99.5878 41.2 99.8758 41.872C100.164 42.496 100.716 42.808 101.532 42.808C102.012 42.808 102.468 42.712 102.9 42.52C103.38 42.28 103.812 42.016 104.196 41.728C104.628 41.392 104.988 41.056 105.276 40.72C105.564 40.384 105.804 40.096 105.996 39.856L108.804 26.752C108.468 26.224 108.012 25.696 107.436 25.168C106.908 24.592 106.284 24.304 105.564 24.304ZM143.086 34.528C142.894 35.584 142.75 36.592 142.654 37.552C142.606 38.512 142.582 39.376 142.582 40.144C142.582 40.576 142.606 41.056 142.654 41.584C142.702 42.112 142.798 42.616 142.942 43.096C143.134 43.528 143.374 43.912 143.662 44.248C143.998 44.536 144.454 44.68 145.03 44.68C145.462 44.68 145.942 44.536 146.47 44.248C147.046 43.96 147.598 43.552 148.126 43.024C148.702 42.496 149.23 41.848 149.71 41.08C150.238 40.312 150.646 39.448 150.934 38.488H162.742L160.87 46.192C159.91 46.816 158.806 47.344 157.558 47.776C156.31 48.208 154.99 48.568 153.598 48.856C152.206 49.096 150.79 49.264 149.35 49.36C147.91 49.504 146.542 49.576 145.246 49.576C142.846 49.576 140.614 49.36 138.55 48.928C136.486 48.496 134.686 47.752 133.15 46.696C131.614 45.64 130.39 44.248 129.478 42.52C128.614 40.744 128.182 38.56 128.182 35.968C128.182 33.616 128.542 31.312 129.262 29.056C130.03 26.8 131.278 24.808 133.006 23.08C134.782 21.304 137.134 19.888 140.062 18.832C143.038 17.776 146.734 17.248 151.15 17.248C155.95 17.248 159.55 17.992 161.95 19.48C164.398 20.968 165.622 23.296 165.622 26.464C165.622 27.76 165.43 29.176 165.046 30.712C164.662 32.2 164.086 33.472 163.318 34.528H143.086ZM152.662 25.96C152.662 24.472 152.422 23.464 151.942 22.936C151.462 22.408 150.886 22.144 150.214 22.144C149.446 22.144 148.726 22.408 148.054 22.936C147.43 23.416 146.854 24.088 146.326 24.952C145.798 25.768 145.318 26.728 144.886 27.832C144.454 28.888 144.094 30.016 143.806 31.216H152.014C152.11 30.64 152.206 30.04 152.302 29.416C152.398 28.888 152.47 28.312 152.518 27.688C152.614 27.064 152.662 26.488 152.662 25.96Z"/>
</mask>
<path d="M45.0905 14.152C45.0905 16.984 44.2985 19.6 42.7145 22C41.1305 24.4 38.5145 26.224 34.8665 27.472L43.2185 49H27.1625L20.8265 29.056H20.0345L15.7865 49H0.234528L9.95453 3.28H28.8905C31.0985 3.28 33.1865 3.424 35.1545 3.712C37.1225 3.952 38.8265 4.48 40.2665 5.296C41.7545 6.064 42.9305 7.168 43.7945 8.608C44.6585 10 45.0905 11.848 45.0905 14.152ZM24.3545 24.448C25.6025 24.448 26.6585 24.04 27.5225 23.224C28.4345 22.36 29.1545 21.328 29.6825 20.128C30.2585 18.928 30.6665 17.656 30.9065 16.312C31.1465 14.92 31.2665 13.72 31.2665 12.712C31.2665 11.464 31.0505 10.408 30.6185 9.544C30.1865 8.632 29.2505 8.176 27.8105 8.176H24.5705L20.9705 24.448H24.3545ZM64.8168 18.04L66.9768 39.208L78.3528 18.04H85.9848L68.6328 49C66.9048 52.024 65.1528 54.352 63.3768 55.984C61.6008 57.616 59.6568 58.816 57.5448 59.584C55.4808 60.352 53.1768 60.784 50.6328 60.88C48.1368 61.024 45.2808 61.096 42.0648 61.096L43.1448 56.128C44.7288 56.128 46.1928 56.104 47.5368 56.056C48.9288 56.008 50.0328 55.864 50.8488 55.624C51.9528 55.336 52.7448 54.808 53.2248 54.04C53.7048 53.32 53.9448 52.24 53.9448 50.8C53.9448 49.84 53.8488 48.736 53.6568 47.488C53.5128 46.24 53.3448 44.92 53.1528 43.528L49.6248 18.04H64.8168ZM114.348 0.615996H129.108L118.812 49H107.148L105.852 44.392H105.348C105.06 44.824 104.604 45.352 103.98 45.976C103.404 46.552 102.66 47.128 101.748 47.704C100.836 48.232 99.7558 48.664 98.5078 49C97.2598 49.384 95.8198 49.576 94.1878 49.576C92.5078 49.576 91.0678 49.336 89.8678 48.856C88.7158 48.328 87.7558 47.632 86.9878 46.768C86.2678 45.904 85.7398 44.872 85.4038 43.672C85.0678 42.424 84.8998 41.08 84.8998 39.64C84.8998 39.016 84.9478 38.032 85.0438 36.688C85.1398 35.296 85.3558 33.784 85.6918 32.152C86.0758 30.472 86.6038 28.768 87.2758 27.04C87.9958 25.264 88.9318 23.656 90.0838 22.216C91.2838 20.776 92.7478 19.6 94.4758 18.688C96.2038 17.728 98.2918 17.248 100.74 17.248C101.508 17.248 102.324 17.32 103.188 17.464C104.052 17.608 104.868 17.872 105.636 18.256C106.452 18.64 107.172 19.192 107.796 19.912C108.42 20.632 108.876 21.568 109.164 22.72H109.668L114.348 0.615996ZM105.564 24.304C104.412 24.304 103.452 24.952 102.684 26.248C101.916 27.496 101.292 28.96 100.812 30.64C100.332 32.32 99.9718 34 99.7318 35.68C99.5398 37.36 99.4438 38.608 99.4438 39.424C99.4438 40.384 99.5878 41.2 99.8758 41.872C100.164 42.496 100.716 42.808 101.532 42.808C102.012 42.808 102.468 42.712 102.9 42.52C103.38 42.28 103.812 42.016 104.196 41.728C104.628 41.392 104.988 41.056 105.276 40.72C105.564 40.384 105.804 40.096 105.996 39.856L108.804 26.752C108.468 26.224 108.012 25.696 107.436 25.168C106.908 24.592 106.284 24.304 105.564 24.304ZM143.086 34.528C142.894 35.584 142.75 36.592 142.654 37.552C142.606 38.512 142.582 39.376 142.582 40.144C142.582 40.576 142.606 41.056 142.654 41.584C142.702 42.112 142.798 42.616 142.942 43.096C143.134 43.528 143.374 43.912 143.662 44.248C143.998 44.536 144.454 44.68 145.03 44.68C145.462 44.68 145.942 44.536 146.47 44.248C147.046 43.96 147.598 43.552 148.126 43.024C148.702 42.496 149.23 41.848 149.71 41.08C150.238 40.312 150.646 39.448 150.934 38.488H162.742L160.87 46.192C159.91 46.816 158.806 47.344 157.558 47.776C156.31 48.208 154.99 48.568 153.598 48.856C152.206 49.096 150.79 49.264 149.35 49.36C147.91 49.504 146.542 49.576 145.246 49.576C142.846 49.576 140.614 49.36 138.55 48.928C136.486 48.496 134.686 47.752 133.15 46.696C131.614 45.64 130.39 44.248 129.478 42.52C128.614 40.744 128.182 38.56 128.182 35.968C128.182 33.616 128.542 31.312 129.262 29.056C130.03 26.8 131.278 24.808 133.006 23.08C134.782 21.304 137.134 19.888 140.062 18.832C143.038 17.776 146.734 17.248 151.15 17.248C155.95 17.248 159.55 17.992 161.95 19.48C164.398 20.968 165.622 23.296 165.622 26.464C165.622 27.76 165.43 29.176 165.046 30.712C164.662 32.2 164.086 33.472 163.318 34.528H143.086ZM152.662 25.96C152.662 24.472 152.422 23.464 151.942 22.936C151.462 22.408 150.886 22.144 150.214 22.144C149.446 22.144 148.726 22.408 148.054 22.936C147.43 23.416 146.854 24.088 146.326 24.952C145.798 25.768 145.318 26.728 144.886 27.832C144.454 28.888 144.094 30.016 143.806 31.216H152.014C152.11 30.64 152.206 30.04 152.302 29.416C152.398 28.888 152.47 28.312 152.518 27.688C152.614 27.064 152.662 26.488 152.662 25.96Z" fill="white"/>
<path d="M42.7145 22L41.8799 21.4492L41.8799 21.4492L42.7145 22ZM34.8665 27.472L34.5428 26.5258L33.5576 26.8629L33.9342 27.8337L34.8665 27.472ZM43.2185 49V50H44.6791L44.1508 48.6383L43.2185 49ZM27.1625 49L26.2095 49.3028L26.431 50H27.1625V49ZM20.8265 29.056L21.7796 28.7532L21.5581 28.056H20.8265V29.056ZM20.0345 29.056V28.056H19.2251L19.0565 28.8477L20.0345 29.056ZM15.7865 49V50H16.596L16.7646 49.2083L15.7865 49ZM0.234528 49L-0.743612 48.792L-1.00042 50H0.234528V49ZM9.95453 3.28V2.28H9.14478L8.97639 3.07205L9.95453 3.28ZM35.1545 3.712L35.0097 4.70146L35.0216 4.7032L35.0335 4.70465L35.1545 3.712ZM40.2665 5.296L39.7735 6.16602L39.7905 6.17565L39.8079 6.18462L40.2665 5.296ZM43.7945 8.608L42.937 9.12249L42.9409 9.12896L42.9449 9.13536L43.7945 8.608ZM27.5225 23.224L28.2092 23.951L28.2103 23.95L27.5225 23.224ZM29.6825 20.128L28.781 19.6953L28.7739 19.7101L28.7672 19.7253L29.6825 20.128ZM30.9065 16.312L31.891 16.4878L31.892 16.4819L30.9065 16.312ZM30.6185 9.544L29.7148 9.97208L29.7193 9.9817L29.7241 9.99121L30.6185 9.544ZM24.5705 8.176V7.176H23.7676L23.5941 7.95998L24.5705 8.176ZM20.9705 24.448L19.9941 24.232L19.7251 25.448H20.9705V24.448ZM44.0905 14.152C44.0905 16.785 43.3578 19.2099 41.8799 21.4492L43.5491 22.5508C45.2393 19.9901 46.0905 17.183 46.0905 14.152H44.0905ZM41.8799 21.4492C40.4535 23.6104 38.0525 25.3252 34.5428 26.5258L35.1902 28.4182C38.9766 27.1228 41.8075 25.1896 43.5491 22.5508L41.8799 21.4492ZM33.9342 27.8337L42.2862 49.3617L44.1508 48.6383L35.7988 27.1103L33.9342 27.8337ZM43.2185 48H27.1625V50H43.2185V48ZM28.1156 48.6972L21.7796 28.7532L19.8735 29.3588L26.2095 49.3028L28.1156 48.6972ZM20.8265 28.056H20.0345V30.056H20.8265V28.056ZM19.0565 28.8477L14.8085 48.7917L16.7646 49.2083L21.0126 29.2643L19.0565 28.8477ZM15.7865 48H0.234528V50H15.7865V48ZM1.21267 49.208L10.9327 3.48795L8.97639 3.07205L-0.743612 48.792L1.21267 49.208ZM9.95453 4.28H28.8905V2.28H9.95453V4.28ZM28.8905 4.28C31.0553 4.28 33.0946 4.42119 35.0097 4.70146L35.2993 2.72254C33.2785 2.4268 31.1418 2.28 28.8905 2.28V4.28ZM35.0335 4.70465C36.896 4.93178 38.4685 5.42652 39.7735 6.16602L40.7595 4.42597C39.1845 3.53348 37.3491 2.97222 35.2756 2.71935L35.0335 4.70465ZM39.8079 6.18462C41.1303 6.86713 42.1684 7.84135 42.937 9.12249L44.652 8.0935C43.6927 6.49464 42.3788 5.26086 40.7252 4.40738L39.8079 6.18462ZM42.9449 9.13536C43.6784 10.3172 44.0905 11.9621 44.0905 14.152H46.0905C46.0905 11.7339 45.6386 9.68284 44.6442 8.08063L42.9449 9.13536ZM24.3545 25.448C25.8437 25.448 27.1495 24.9518 28.2092 23.951L26.8359 22.497C26.1676 23.1282 25.3613 23.448 24.3545 23.448V25.448ZM28.2103 23.95C29.2231 22.9905 30.0186 21.8471 30.5978 20.5307L28.7672 19.7253C28.2904 20.8089 27.646 21.7295 26.8348 22.498L28.2103 23.95ZM30.5841 20.5607C31.2002 19.2771 31.6355 17.9185 31.891 16.4878L29.9221 16.1362C29.6976 17.3935 29.3169 18.5789 28.781 19.6953L30.5841 20.5607ZM31.892 16.4819C32.1381 15.0542 32.2665 13.7945 32.2665 12.712H30.2665C30.2665 13.6455 30.1549 14.7858 29.9211 16.1421L31.892 16.4819ZM32.2665 12.712C32.2665 11.3526 32.0316 10.1341 31.513 9.09678L29.7241 9.99121C30.0694 10.6819 30.2665 11.5754 30.2665 12.712H32.2665ZM31.5223 9.11591C30.8566 7.71072 29.4471 7.176 27.8105 7.176V9.176C29.054 9.176 29.5164 9.55328 29.7148 9.97208L31.5223 9.11591ZM27.8105 7.176H24.5705V9.176H27.8105V7.176ZM23.5941 7.95998L19.9941 24.232L21.9469 24.664L25.5469 8.39201L23.5941 7.95998ZM20.9705 25.448H24.3545V23.448H20.9705V25.448ZM64.8168 18.04L65.8117 17.9385L65.72 17.04H64.8168V18.04ZM66.9768 39.208L65.982 39.3095L66.3132 42.5553L67.8577 39.6814L66.9768 39.208ZM78.3528 18.04V17.04H77.755L77.472 17.5666L78.3528 18.04ZM85.9848 18.04L86.8572 18.5289L87.6917 17.04H85.9848V18.04ZM68.6328 49L69.5011 49.4962L69.5052 49.4889L68.6328 49ZM63.3768 55.984L62.7002 55.2477L62.7002 55.2477L63.3768 55.984ZM57.5448 59.584L57.2031 58.6442L57.1961 58.6468L57.5448 59.584ZM50.6328 60.88L50.5951 59.8807L50.5852 59.8811L50.5752 59.8817L50.6328 60.88ZM42.0648 61.096L41.0877 60.8836L40.8241 62.096H42.0648V61.096ZM43.1448 56.128V55.128H42.3389L42.1677 55.9156L43.1448 56.128ZM47.5368 56.056L47.5024 55.0566L47.5011 55.0566L47.5368 56.056ZM50.8488 55.624L50.5964 54.6564L50.5815 54.6603L50.5667 54.6646L50.8488 55.624ZM53.2248 54.04L52.3928 53.4853L52.3846 53.4975L52.3768 53.51L53.2248 54.04ZM53.6568 47.488L52.6634 47.6026L52.6656 47.6214L52.6685 47.6401L53.6568 47.488ZM53.1528 43.528L54.1435 43.3914L54.1434 43.3909L53.1528 43.528ZM49.6248 18.04V17.04H48.4769L48.6343 18.1771L49.6248 18.04ZM63.822 18.1415L65.982 39.3095L67.9717 39.1065L65.8117 17.9385L63.822 18.1415ZM67.8577 39.6814L79.2337 18.5134L77.472 17.5666L66.096 38.7346L67.8577 39.6814ZM78.3528 19.04H85.9848V17.04H78.3528V19.04ZM85.1125 17.5511L67.7605 48.5111L69.5052 49.4889L86.8572 18.5289L85.1125 17.5511ZM67.7646 48.5039C66.0671 51.4745 64.3748 53.7088 62.7002 55.2477L64.0535 56.7203C65.9308 54.9952 67.7426 52.5735 69.5011 49.4961L67.7646 48.5039ZM62.7002 55.2477C61.0141 56.797 59.1823 57.9245 57.2031 58.6442L57.8866 60.5238C60.1314 59.7075 62.1875 58.435 64.0535 56.7203L62.7002 55.2477ZM57.1961 58.6468C55.246 59.3724 53.0491 59.7881 50.5951 59.8807L50.6705 61.8793C53.3046 61.7799 55.7157 61.3316 57.8936 60.5212L57.1961 58.6468ZM50.5752 59.8817C48.1029 60.0243 45.2667 60.096 42.0648 60.096V62.096C45.2949 62.096 48.1708 62.0237 50.6904 61.8783L50.5752 59.8817ZM43.042 61.3084L44.122 56.3404L42.1677 55.9156L41.0877 60.8836L43.042 61.3084ZM43.1448 57.128C44.7387 57.128 46.2148 57.1039 47.5725 57.0554L47.5011 55.0566C46.1709 55.1041 44.719 55.128 43.1448 55.128V57.128ZM47.5713 57.0554C49.0012 57.0061 50.1998 56.8572 51.131 56.5834L50.5667 54.6646C49.8659 54.8708 48.8565 55.0099 47.5024 55.0566L47.5713 57.0554ZM51.1013 56.5916C52.3853 56.2566 53.4247 55.607 54.0728 54.57L52.3768 53.51C52.0649 54.009 51.5203 54.4154 50.5964 54.6564L51.1013 56.5916ZM54.0569 54.5947C54.6973 53.6341 54.9448 52.3195 54.9448 50.8H52.9448C52.9448 52.1605 52.7124 53.0059 52.3928 53.4853L54.0569 54.5947ZM54.9448 50.8C54.9448 49.7761 54.8427 48.6196 54.6452 47.3359L52.6685 47.6401C52.855 48.8524 52.9448 49.9039 52.9448 50.8H54.9448ZM54.6502 47.3734C54.5053 46.1172 54.3364 44.7898 54.1435 43.3914L52.1622 43.6646C52.3533 45.0502 52.5204 46.3628 52.6634 47.6026L54.6502 47.3734ZM54.1434 43.3909L50.6154 17.9029L48.6343 18.1771L52.1623 43.6651L54.1434 43.3909ZM49.6248 19.04H64.8168V17.04H49.6248V19.04ZM114.348 0.615996V-0.384004H113.537L113.369 0.408862L114.348 0.615996ZM129.108 0.615996L130.086 0.824134L130.343 -0.384004H129.108V0.615996ZM118.812 49V50H119.621L119.79 49.2081L118.812 49ZM107.148 49L106.185 49.2707L106.39 50H107.148V49ZM105.852 44.392L106.814 44.1213L106.609 43.392H105.852V44.392ZM105.348 44.392V43.392H104.813L104.516 43.8373L105.348 44.392ZM103.98 45.976L103.273 45.2689L103.273 45.2689L103.98 45.976ZM101.748 47.704L102.249 48.5694L102.265 48.5598L102.282 48.5495L101.748 47.704ZM98.5078 49L98.2478 48.0344L98.2307 48.039L98.2137 48.0442L98.5078 49ZM89.8678 48.856L89.4511 49.7651L89.4735 49.7753L89.4964 49.7845L89.8678 48.856ZM86.9878 46.768L86.2196 47.4082L86.2298 47.4204L86.2404 47.4324L86.9878 46.768ZM85.4038 43.672L84.4381 43.932L84.4408 43.9416L85.4038 43.672ZM85.0438 36.688L86.0412 36.7592L86.0414 36.7568L85.0438 36.688ZM85.6918 32.152L84.7169 31.9292L84.7145 31.9397L84.7123 31.9503L85.6918 32.152ZM87.2758 27.04L86.349 26.6643L86.3464 26.6709L86.3438 26.6776L87.2758 27.04ZM90.0838 22.216L89.3156 21.5758L89.3092 21.5835L89.3029 21.5913L90.0838 22.216ZM94.4758 18.688L94.9425 19.5724L94.952 19.5674L94.9614 19.5622L94.4758 18.688ZM103.188 17.464L103.023 18.4504L103.023 18.4504L103.188 17.464ZM105.636 18.256L105.189 19.1504L105.199 19.1557L105.21 19.1608L105.636 18.256ZM107.796 19.912L107.04 20.5669L107.04 20.5669L107.796 19.912ZM109.164 22.72L108.194 22.9625L108.383 23.72H109.164V22.72ZM109.668 22.72V23.72H110.478L110.646 22.9271L109.668 22.72ZM102.684 26.248L103.535 26.7721L103.54 26.765L103.544 26.7578L102.684 26.248ZM100.812 30.64L101.773 30.9147L101.773 30.9147L100.812 30.64ZM99.7318 35.68L98.7418 35.5386L98.7398 35.5525L98.7382 35.5665L99.7318 35.68ZM99.8758 41.872L98.9566 42.2659L98.9621 42.2786L98.9678 42.2911L99.8758 41.872ZM102.9 42.52L103.306 43.4338L103.327 43.4246L103.347 43.4144L102.9 42.52ZM104.196 41.728L104.796 42.528L104.803 42.5227L104.81 42.5174L104.196 41.728ZM105.276 40.72L106.035 41.3708L106.035 41.3708L105.276 40.72ZM105.996 39.856L106.777 40.4807L106.924 40.2964L106.974 40.0655L105.996 39.856ZM108.804 26.752L109.782 26.9615L109.867 26.5608L109.647 26.2151L108.804 26.752ZM107.436 25.168L106.699 25.8437L106.728 25.8758L106.76 25.9052L107.436 25.168ZM114.348 1.616H129.108V-0.384004H114.348V1.616ZM128.13 0.407859L117.834 48.7919L119.79 49.2081L130.086 0.824134L128.13 0.407859ZM118.812 48H107.148V50H118.812V48ZM108.11 48.7293L106.814 44.1213L104.889 44.6627L106.185 49.2707L108.11 48.7293ZM105.852 43.392H105.348V45.392H105.852V43.392ZM104.516 43.8373C104.281 44.1896 103.878 44.664 103.273 45.2689L104.687 46.6831C105.33 46.04 105.839 45.4584 106.18 44.9467L104.516 43.8373ZM103.273 45.2689C102.763 45.7788 102.082 46.3102 101.214 46.8585L102.282 48.5495C103.238 47.9458 104.045 47.3252 104.687 46.6831L103.273 45.2689ZM101.247 46.8386C100.425 47.3142 99.4297 47.7162 98.2478 48.0344L98.7677 49.9656C100.082 49.6118 101.246 49.1498 102.249 48.5694L101.247 46.8386ZM98.2137 48.0442C97.0813 48.3927 95.7439 48.576 94.1878 48.576V50.576C95.8957 50.576 97.4383 50.3753 98.8019 49.9558L98.2137 48.0442ZM94.1878 48.576C92.5987 48.576 91.2915 48.3484 90.2392 47.9275L89.4964 49.7845C90.8441 50.3236 92.4169 50.576 94.1878 50.576V48.576ZM90.2844 47.9469C89.2462 47.4711 88.4026 46.8544 87.7352 46.1036L86.2404 47.4324C87.109 48.4096 88.1853 49.1849 89.4511 49.7651L90.2844 47.9469ZM87.756 46.1278C87.1357 45.3834 86.6688 44.4813 86.3667 43.4024L84.4408 43.9416C84.8107 45.2627 85.3999 46.4246 86.2196 47.4082L87.756 46.1278ZM86.3694 43.412C86.0586 42.2578 85.8998 41.0021 85.8998 39.64H83.8998C83.8998 41.1579 84.0769 42.5902 84.4382 43.932L86.3694 43.412ZM85.8998 39.64C85.8998 39.054 85.9455 38.1001 86.0412 36.7592L84.0463 36.6168C83.9501 37.9639 83.8998 38.978 83.8998 39.64H85.8998ZM86.0414 36.7568C86.1338 35.417 86.3426 33.95 86.6712 32.3537L84.7123 31.9503C84.369 33.618 84.1457 35.175 84.0461 36.6192L86.0414 36.7568ZM86.6666 32.3748C87.039 30.7458 87.5521 29.0884 88.2078 27.4024L86.3438 26.6776C85.6554 28.4476 85.1126 30.1982 84.7169 31.9292L86.6666 32.3748ZM88.2025 27.4157C88.8876 25.7258 89.7754 24.2023 90.8646 22.8407L89.3029 21.5913C88.0882 23.1097 87.1039 24.8022 86.349 26.6643L88.2025 27.4157ZM90.852 22.8562C91.9649 21.5207 93.325 20.4261 94.9425 19.5724L94.009 17.8036C92.1705 18.7739 90.6027 20.0313 89.3156 21.5758L90.852 22.8562ZM94.9614 19.5622C96.5094 18.7022 98.4217 18.248 100.74 18.248V16.248C98.1619 16.248 95.8981 16.7538 93.9901 17.8138L94.9614 19.5622ZM100.74 18.248C101.446 18.248 102.206 18.3142 103.023 18.4504L103.352 16.4776C102.441 16.3258 101.57 16.248 100.74 16.248V18.248ZM103.023 18.4504C103.791 18.5783 104.512 18.8119 105.189 19.1504L106.083 17.3616C105.224 16.9321 104.313 16.6377 103.352 16.4776L103.023 18.4504ZM105.21 19.1608C105.893 19.4821 106.502 19.9463 107.04 20.5669L108.551 19.2571C107.841 18.4377 107.011 17.7979 106.062 17.3512L105.21 19.1608ZM107.04 20.5669C107.539 21.1426 107.935 21.9262 108.194 22.9625L110.134 22.4775C109.817 21.2098 109.301 20.1214 108.551 19.2571L107.04 20.5669ZM109.164 23.72H109.668V21.72H109.164V23.72ZM110.646 22.9271L115.326 0.823131L113.369 0.408862L108.689 22.5129L110.646 22.9271ZM105.564 23.304C103.95 23.304 102.708 24.245 101.823 25.7382L103.544 26.7578C104.195 25.659 104.874 25.304 105.564 25.304V23.304ZM101.832 25.7239C101.008 27.0628 100.351 28.6138 99.8503 30.3653L101.773 30.9147C102.233 29.3062 102.823 27.9292 103.535 26.7721L101.832 25.7239ZM99.8503 30.3653C99.3581 32.0877 98.9884 33.8122 98.7418 35.5386L100.722 35.8214C100.955 34.1878 101.305 32.5523 101.773 30.9147L99.8503 30.3653ZM98.7382 35.5665C98.5455 37.2532 98.4438 38.5481 98.4438 39.424H100.444C100.444 38.6679 100.534 37.4668 100.725 35.7935L98.7382 35.5665ZM98.4438 39.424C98.4438 40.4791 98.6014 41.4371 98.9566 42.2659L100.795 41.4781C100.574 40.9629 100.444 40.2889 100.444 39.424H98.4438ZM98.9678 42.2911C99.1919 42.7766 99.5397 43.1766 100.014 43.4446C100.477 43.7064 101 43.808 101.532 43.808V41.808C101.248 41.808 101.087 41.7536 100.998 41.7034C100.92 41.6594 100.848 41.5914 100.784 41.4529L98.9678 42.2911ZM101.532 43.808C102.149 43.808 102.744 43.6835 103.306 43.4338L102.494 41.6062C102.192 41.7405 101.874 41.808 101.532 41.808V43.808ZM103.347 43.4144C103.874 43.1507 104.359 42.8559 104.796 42.528L103.596 40.928C103.265 41.1761 102.885 41.4093 102.453 41.6256L103.347 43.4144ZM104.81 42.5174C105.283 42.1494 105.695 41.768 106.035 41.3708L104.517 40.0692C104.281 40.344 103.973 40.6346 103.582 40.9386L104.81 42.5174ZM106.035 41.3708C106.327 41.0296 106.575 40.7324 106.777 40.4807L105.215 39.2313C105.032 39.4596 104.8 39.7384 104.517 40.0692L106.035 41.3708ZM106.974 40.0655L109.782 26.9615L107.826 26.5425L105.018 39.6465L106.974 40.0655ZM109.647 26.2151C109.255 25.5977 108.737 25.004 108.112 24.4308L106.76 25.9052C107.287 26.388 107.681 26.8503 107.96 27.2889L109.647 26.2151ZM108.173 24.4923C107.474 23.7293 106.59 23.304 105.564 23.304V25.304C105.978 25.304 106.342 25.4546 106.699 25.8437L108.173 24.4923ZM143.086 34.528V33.528H142.252L142.103 34.3491L143.086 34.528ZM142.654 37.552L141.659 37.4525L141.657 37.4772L141.656 37.5021L142.654 37.552ZM142.942 43.096L141.985 43.3833L142.003 43.4441L142.029 43.5021L142.942 43.096ZM143.662 44.248L142.903 44.8988L142.953 44.9572L143.012 45.0073L143.662 44.248ZM146.47 44.248L146.023 43.3536L146.007 43.3616L145.992 43.3701L146.47 44.248ZM148.126 43.024L147.451 42.2868L147.435 42.3015L147.419 42.3169L148.126 43.024ZM149.71 41.08L148.886 40.5135L148.874 40.5315L148.862 40.55L149.71 41.08ZM150.934 38.488V37.488H150.19L149.977 38.2007L150.934 38.488ZM162.742 38.488L163.714 38.7241L164.015 37.488H162.742V38.488ZM160.87 46.192L161.415 47.0304L161.748 46.814L161.842 46.4281L160.87 46.192ZM157.558 47.776L157.886 48.721L157.886 48.721L157.558 47.776ZM153.598 48.856L153.768 49.8415L153.785 49.8386L153.801 49.8353L153.598 48.856ZM149.35 49.36L149.284 48.3622L149.267 48.3633L149.251 48.365L149.35 49.36ZM138.55 48.928L138.346 49.9068L138.346 49.9068L138.55 48.928ZM133.15 46.696L133.717 45.872L133.717 45.872L133.15 46.696ZM129.478 42.52L128.579 42.9575L128.586 42.9722L128.594 42.9868L129.478 42.52ZM129.262 29.056L128.316 28.7337L128.313 28.7428L128.31 28.752L129.262 29.056ZM133.006 23.08L132.299 22.3729L132.299 22.3729L133.006 23.08ZM140.062 18.832L139.728 17.8896L139.723 17.8913L140.062 18.832ZM161.95 19.48L161.424 20.3299L161.431 20.3345L161.95 19.48ZM165.046 30.712L166.015 30.9619L166.017 30.9545L165.046 30.712ZM163.318 34.528V35.528H163.828L164.127 35.1162L163.318 34.528ZM148.054 22.936L148.664 23.7287L148.672 23.7223L148.054 22.936ZM146.326 24.952L147.166 25.4952L147.173 25.4844L147.18 25.4734L146.326 24.952ZM144.886 27.832L145.812 28.2106L145.815 28.2035L145.818 28.1964L144.886 27.832ZM143.806 31.216L142.834 30.9826L142.538 32.216H143.806V31.216ZM152.014 31.216V32.216H152.862L153.001 31.3804L152.014 31.216ZM152.302 29.416L151.319 29.2371L151.316 29.2505L151.314 29.2639L152.302 29.416ZM152.518 27.688L151.53 27.5359L151.524 27.5735L151.521 27.6113L152.518 27.688ZM142.103 34.3491C141.906 35.4285 141.758 36.4631 141.659 37.4525L143.65 37.6515C143.743 36.7209 143.883 35.7395 144.07 34.7069L142.103 34.3491ZM141.656 37.5021C141.607 38.4748 141.582 39.3558 141.582 40.144H143.582C143.582 39.3962 143.606 38.5492 143.653 37.6019L141.656 37.5021ZM141.582 40.144C141.582 40.6121 141.608 41.1229 141.659 41.6745L143.65 41.4935C143.605 40.9891 143.582 40.5399 143.582 40.144H141.582ZM141.659 41.6745C141.712 42.2654 141.82 42.8356 141.985 43.3833L143.9 42.8087C143.777 42.3964 143.693 41.9586 143.65 41.4935L141.659 41.6745ZM142.029 43.5021C142.257 44.0167 142.548 44.4843 142.903 44.8988L144.422 43.5972C144.201 43.3397 144.012 43.0393 143.856 42.6899L142.029 43.5021ZM143.012 45.0073C143.578 45.4925 144.289 45.68 145.03 45.68V43.68C144.62 43.68 144.419 43.5795 144.313 43.4887L143.012 45.0073ZM145.03 45.68C145.683 45.68 146.329 45.4642 146.949 45.1259L145.992 43.3701C145.556 43.6078 145.242 43.68 145.03 43.68V45.68ZM146.918 45.1424C147.604 44.7994 148.241 44.3232 148.834 43.7311L147.419 42.3169C146.955 42.7808 146.489 43.1206 146.023 43.3536L146.918 45.1424ZM148.802 43.7612C149.454 43.1634 150.038 42.4427 150.558 41.61L148.862 40.55C148.423 41.2533 147.951 41.8286 147.451 42.2868L148.802 43.7612ZM150.535 41.6465C151.126 40.7868 151.577 39.8273 151.892 38.7753L149.977 38.2007C149.716 39.0687 149.351 39.8372 148.886 40.5135L150.535 41.6465ZM150.934 39.488H162.742V37.488H150.934V39.488ZM161.771 38.2519L159.899 45.9559L161.842 46.4281L163.714 38.7241L161.771 38.2519ZM160.325 45.3536C159.443 45.9272 158.414 46.4216 157.231 46.831L157.886 48.721C159.199 48.2664 160.378 47.7048 161.415 47.0304L160.325 45.3536ZM157.231 46.831C156.027 47.2479 154.749 47.5968 153.396 47.8767L153.801 49.8353C155.232 49.5392 156.594 49.1681 157.886 48.721L157.231 46.831ZM153.429 47.8705C152.072 48.1045 150.69 48.2685 149.284 48.3622L149.417 50.3578C150.891 50.2595 152.341 50.0875 153.768 49.8415L153.429 47.8705ZM149.251 48.365C147.84 48.506 146.506 48.576 145.246 48.576V50.576C146.579 50.576 147.981 50.502 149.45 50.355L149.251 48.365ZM145.246 48.576C142.906 48.576 140.743 48.3653 138.755 47.9492L138.346 49.9068C140.485 50.3547 142.787 50.576 145.246 50.576V48.576ZM138.755 47.9492C136.804 47.5408 135.13 46.8437 133.717 45.872L132.584 47.52C134.242 48.6603 136.169 49.4512 138.346 49.9068L138.755 47.9492ZM133.717 45.872C132.321 44.9121 131.203 43.6453 130.363 42.0532L128.594 42.9868C129.578 44.8507 130.908 46.3679 132.584 47.52L133.717 45.872ZM130.378 42.0825C129.597 40.4785 129.182 38.4539 129.182 35.968H127.182C127.182 38.6661 127.632 41.0095 128.579 42.9575L130.378 42.0825ZM129.182 35.968C129.182 33.7199 129.526 31.5184 130.215 29.36L128.31 28.752C127.559 31.1056 127.182 33.5121 127.182 35.968H129.182ZM130.209 29.3783C130.926 27.271 132.091 25.4097 133.714 23.7871L132.299 22.3729C130.466 24.2063 129.134 26.329 128.316 28.7337L130.209 29.3783ZM133.714 23.7871C135.364 22.1369 137.58 20.7905 140.402 19.7727L139.723 17.8913C136.689 18.9855 134.201 20.4711 132.299 22.3729L133.714 23.7871ZM140.397 19.7744C143.232 18.7684 146.807 18.248 151.15 18.248V16.248C146.662 16.248 142.845 16.7836 139.728 17.8896L140.397 19.7744ZM151.15 18.248C155.88 18.248 159.257 18.9868 161.424 20.3299L162.477 18.6301C159.844 16.9972 156.021 16.248 151.15 16.248V18.248ZM161.431 20.3345C163.545 21.6192 164.622 23.6009 164.622 26.464H166.622C166.622 22.9911 165.252 20.3168 162.47 18.6255L161.431 20.3345ZM164.622 26.464C164.622 27.6626 164.445 28.996 164.076 30.4695L166.017 30.9545C166.416 29.356 166.622 27.8574 166.622 26.464H164.622ZM164.078 30.4621C163.72 31.8495 163.192 33.0018 162.51 33.9398L164.127 35.1162C164.981 33.9422 165.605 32.5505 166.015 30.9619L164.078 30.4621ZM163.318 33.528H143.086V35.528H163.318V33.528ZM153.662 25.96C153.662 25.1687 153.599 24.4612 153.455 23.8564C153.313 23.2574 153.076 22.6962 152.682 22.2633L151.203 23.6087C151.289 23.7038 151.412 23.9106 151.51 24.3196C151.606 24.7228 151.662 25.2633 151.662 25.96H153.662ZM152.682 22.2633C152.026 21.5414 151.187 21.144 150.214 21.144V23.144C150.586 23.144 150.899 23.2746 151.203 23.6087L152.682 22.2633ZM150.214 21.144C149.197 21.144 148.264 21.4998 147.437 22.1497L148.672 23.7223C149.189 23.3162 149.696 23.144 150.214 23.144V21.144ZM147.445 22.1434C146.7 22.7161 146.048 23.4905 145.473 24.4305L147.18 25.4734C147.661 24.6855 148.161 24.1159 148.664 23.7286L147.445 22.1434ZM145.487 24.4087C144.915 25.2918 144.407 26.3142 143.955 27.4676L145.818 28.1964C146.23 27.1418 146.681 26.2442 147.166 25.4952L145.487 24.4087ZM143.961 27.4534C143.508 28.5602 143.133 29.7371 142.834 30.9826L144.779 31.4494C145.056 30.2949 145.401 29.2158 145.812 28.2106L143.961 27.4534ZM143.806 32.216H152.014V30.216H143.806V32.216ZM153.001 31.3804C153.098 30.8 153.194 30.1958 153.291 29.5681L151.314 29.2639C151.219 29.8842 151.123 30.48 151.028 31.0516L153.001 31.3804ZM153.286 29.5949C153.389 29.0281 153.465 28.4175 153.516 27.7647L151.521 27.6113C151.476 28.2065 151.408 28.7479 151.319 29.2371L153.286 29.5949ZM153.507 27.8401C153.609 27.1752 153.662 26.5476 153.662 25.96H151.662C151.662 26.4284 151.62 26.9528 151.53 27.5359L153.507 27.8401Z" fill="#EDEDED" mask="url(#path-1-outside-1_2_30)"/>
</svg>
